<?xml version="1.0" encoding="UTF-8" standalone="no"?>
<svg version="1.0" width="10016.000000pt" height="4693.000000pt" viewBox="0 0 10016.000000 4693.000000" preserveAspectRatio="xMidYMid meet" id="svg6" sodipodi:docname="83d2f4ec-2e9c-4bb7-b428-305de810fe65.svg"
   xmlns:inkscape="http://www.inkscape.org/namespaces/inkscape"
   xmlns:sodipodi="http://sodipodi.sourceforge.net/DTD/sodipodi-0.dtd"
   xmlns="http://www.w3.org/2000/svg"
   xmlns:svg="http://www.w3.org/2000/svg">
   <defs id="defs6" />
   <sodipodi:namedview id="namedview6" pagecolor="#ffffff" bordercolor="#9D00FF" borderopacity="0.25" inkscape:showpageshadow="2" inkscape:pageopacity="0.0" inkscape:pagecheckerboard="0" inkscape:deskcolor="#d1d1d1" inkscape:document-units="pt" />
   <g transform="translate(0.000000,4693.000000) scale(0.100000,-0.100000)" fill="#9D00FF" stroke="none" id="g6">
      <path d="M84330 46924 c-1605 -38 -3030 -204 -4465 -520 -1191 -262 -2396 -646 -3464 -1103 -1508 -646 -2848 -1447 -4111 -2456 -691 -553 -1405 -1223 -1917 -1800 -1362 -1537 -2593 -3483 -3422 -5412 -1147 -2671 -1627 -5405 -1425 -8133 187 -2538 862 -5060 1861 -6955 1110 -2103 2566 -3555 4442 -4430 1165 -543 2331 -841 3716 -951 271 -21 1160 -30 1480 -15 2414 116 4375 792 6185 2134 939 696 1898 1656 2718 2719 l137 178 68 0 69 0 -6 -28 c-3 -15 -130 -677 -281 -1472 -284 -1490 -317 -1650 -436 -2125 -581 -2322 -1458 -4124 -2656 -5452 -227 -252 -571 -582 -853 -818 -273 -228 -716 -538 -1045 -731 -183 -107 -576 -308 -780 -399 -856 -383 -1808 -626 -2930 -749 -495 -54 -915 -80 -2055 -126 -2858 -114 -3824 -136 -5785 -127 -1209 6 -1526 10 -2575 37 -857 22 -2933 91 -3112 104 -38 3 -68 1 -68 -4 0 -9 412 -3604 740 -6453 115 -1006 210 -1831 210 -1833 0 -9 11094 -3 11470 6 961 23 1772 82 2637 190 3934 493 7283 1884 9928 4125 1994 1689 3397 3717 4543 6566 859 2135 1623 4803 2768 9662 1541 6540 2679 12796 3774 20737 164 1187 460 3431 460 3483 0 22 -21 32 -247 122 -1664 656 -3401 1171 -5223 1549 -450 93 -730 124 -1030 112 -539 -20 -1031 -146 -1492 -380 -914 -464 -1574 -1281 -1833 -2268 -35 -133 -943 -4903 -949 -4988 -2 -25 -243 -1426 -536 -3115 -498 -2875 -553 -3185 -875 -4875 -379 -1988 -398 -2080 -525 -2585 -696 -2765 -1884 -4389 -3720 -5085 -661 -250 -1415 -392 -2345 -440 -580 -29 -1057 -22 -1400 21 -1192 151 -2137 716 -2771 1659 -135 201 -222 353 -343 602 -396 811 -627 1757 -766 3125 -169 1672 -192 2704 -84 3693 209 1912 928 3483 2164 4725 819 824 1839 1469 3010 1905 932 347 1878 540 2990 611 244 16 962 16 1215 0 659 -41 1296 -128 1870 -255 85 -19 155 -33 156 -33 0 1 326 1719 723 3817 398 2098 725 3827 728 3841 6 31 23 26 -227 73 -800 150 -1886 263 -2935 306 -264 10 -1147 19 -1375 14z" id="path1" />
      <path d="M11570 46553 c-363 -21 -744 -106 -1085 -240 -1056 -416 -1853 -1316 -2135 -2408 -23 -89 -720 -3719 -720 -3750 0 -3 2239 -5 4975 -5 2736 0 4975 2 4975 5 0 3 272 1441 605 3194 333 1754 605 3193 605 3200 0 8 -910 11 -3582 9 -1971 -1 -3608 -3 -3638 -5z" id="path2" />
      <path d="M46670 46549 c-1185 -85 -2251 -763 -2834 -1799 -27 -47 -3985 -8174 -8796 -18060 l-8748 -17975 -7341 -3 -7341 -2 5 22 c3 13 118 617 256 1343 621 3279 1253 6609 1894 9985 382 2010 996 5246 1365 7190 368 1944 673 3547 676 3563 l6 27 -4975 0 -4976 0 -10 -52 c-6 -29 -249 -1311 -541 -2848 -292 -1537 -612 -3218 -710 -3735 -99 -517 -454 -2389 -790 -4160 -336 -1771 -683 -3596 -770 -4055 -88 -459 -443 -2331 -790 -4160 -347 -1829 -991 -5219 -1431 -7535 -440 -2316 -803 -4229 -806 -4253 l-6 -42 16343 2 16342 3 2727 6040 2727 6040 942 5 943 5 1654 3795 1654 3795 -1144 5 -1143 5 1899 4110 c1045 2261 2112 4569 2371 5130 495 1071 698 1522 948 2107 450 1047 914 2192 1795 4428 414 1052 1026 2583 1237 3097 l103 253 70 0 70 0 38 -517 c147 -2022 204 -2803 256 -3553 131 -1852 216 -3143 280 -4250 22 -377 43 -721 46 -765 4 -59 925 -9624 961 -9982 l7 -63 -1562 -2 -1562 -3 -1655 -3795 c-910 -2087 -1654 -3796 -1654 -3797 0 -2 3787 -3 8415 -3 l8416 0 -6 33 c-6 36 -4035 34410 -4035 34427 0 12 -10650 12 -10820 -1z" id="path3" />
      <path d="M7345 38663 c-3 -21 -276 -1458 -606 -3194 -329 -1736 -599 -3161 -599 -3167 0 -9 1197 -12 4973 -12 l4973 0 603 3178 c332 1747 606 3189 608 3205 l6 27 -4976 0 -4975 0 -7 -37z" id="path4" />
      <path d="M44900 19648 c-174 -397 -3290 -7550 -3290 -7553 0 -3 340 -4 756 -3 l755 3 1655 3794 c909 2086 1654 3795 1654 3797 0 2 -340 4 -756 4 l-755 0 -19 -42z" id="path5" />
      <path d="M51658 10603 c16 -203 782 -10556 782 -10576 l0 -27 5225 0 c4970 0 5225 1 5225 18 0 9 -207 1824 -460 4032 -253 2208 -526 4594 -608 5302 l-147 1288 -5010 0 -5011 0 4 -37z m6328 -3543 c45 -393 85 -734 88 -757 l6 -43 -744 0 -745 0 -5 53 c-9 74 -106 1395 -106 1435 l0 32 712 -2 712 -3 82 -715z m-1824 -1732 c47 -414 84 -756 81 -760 -4 -7 -1483 -12 -1483 -5 0 1 -25 333 -55 737 -30 404 -55 745 -55 758 l0 22 713 0 713 0 86 -752z m3582 730 c8 -37 166 -1440 166 -1470 l0 -28 -740 0 c-584 0 -742 3 -745 13 -2 6 -28 348 -57 760 l-54 747 713 0 713 0 4 -22z m-1758 -2388 c45 -393 85 -734 88 -757 l6 -43 -744 0 -745 0 -5 53 c-9 74 -106 1395 -106 1435 l0 32 712 -2 712 -3 82 -715z" id="path6" />
   </g>
</svg>
